TITLE ""
FILE "LR_black_phrase_E_S09.mp3" MP3
  TRACK 01 AUDIO
    TITLE "LR_black_phrase_E_S09_001"
    INDEX 01 00:00:00
  TRACK 02 AUDIO
    TITLE "LR_black_phrase_E_S09_002"
    INDEX 01 00:00:14
  TRACK 03 AUDIO
    TITLE "LR_black_phrase_E_S09_003"
    INDEX 01 00:01:22
  TRACK 04 AUDIO
    TITLE "LR_black_phrase_E_S09_004"
    INDEX 01 00:01:49
  TRACK 05 AUDIO
    TITLE "LR_black_phrase_E_S09_005"
    INDEX 01 00:03:22
  TRACK 06 AUDIO
    TITLE "LR_black_phrase_E_S09_006"
    INDEX 01 00:03:75
  TRACK 07 AUDIO
    TITLE "LR_black_phrase_E_S09_007"
    INDEX 01 00:05:47
  TRACK 08 AUDIO
    TITLE "LR_black_phrase_E_S09_008"
    INDEX 01 00:06:46
  TRACK 09 AUDIO
    TITLE "LR_black_phrase_E_S09_009"
    INDEX 01 00:07:71
  TRACK 10 AUDIO
    TITLE "LR_black_phrase_E_S09_010"
    INDEX 01 00:08:24
  TRACK 11 AUDIO
    TITLE "LR_black_phrase_E_S09_011"
    INDEX 01 00:10:66
  TRACK 12 AUDIO
    TITLE "LR_black_phrase_E_S09_012"
    INDEX 01 00:11:45
  TRACK 13 AUDIO
    TITLE "LR_black_phrase_E_S09_013"
    INDEX 01 00:14:10
  TRACK 14 AUDIO
    TITLE "LR_black_phrase_E_S09_014"
    INDEX 01 00:15:12
  TRACK 15 AUDIO
    TITLE "LR_black_phrase_E_S09_015"
    INDEX 01 00:16:35
  TRACK 16 AUDIO
    TITLE "LR_black_phrase_E_S09_016"
    INDEX 01 00:16:60
  TRACK 17 AUDIO
    TITLE "LR_black_phrase_E_S09_017"
    INDEX 01 00:18:69
  TRACK 18 AUDIO
    TITLE "LR_black_phrase_E_S09_018"
    INDEX 01 00:19:41
  TRACK 19 AUDIO
    TITLE "LR_black_phrase_E_S09_019"
    INDEX 01 00:21:48
  TRACK 20 AUDIO
    TITLE "LR_black_phrase_E_S09_020"
    INDEX 01 00:22:41
  TRACK 21 AUDIO
    TITLE "LR_black_phrase_E_S09_021"
    INDEX 01 00:23:49
  TRACK 22 AUDIO
    TITLE "LR_black_phrase_E_S09_022"
    INDEX 01 00:23:72
  TRACK 23 AUDIO
    TITLE "LR_black_phrase_E_S09_023"
    INDEX 01 00:26:37
  TRACK 24 AUDIO
    TITLE "LR_black_phrase_E_S09_024"
    INDEX 01 00:27:07
  TRACK 25 AUDIO
    TITLE "LR_black_phrase_E_S09_025"
    INDEX 01 00:29:49
  TRACK 26 AUDIO
    TITLE "LR_black_phrase_E_S09_026"
    INDEX 01 00:30:49
  TRACK 27 AUDIO
    TITLE "LR_black_phrase_E_S09_027"
    INDEX 01 00:31:72
  TRACK 28 AUDIO
    TITLE "LR_black_phrase_E_S09_028"
    INDEX 01 00:32:26
  TRACK 29 AUDIO
    TITLE "LR_black_phrase_E_S09_029"
    INDEX 01 00:35:09
  TRACK 30 AUDIO
    TITLE "LR_black_phrase_E_S09_030"
    INDEX 01 00:35:64
  TRACK 31 AUDIO
    TITLE "LR_black_phrase_E_S09_031"
    INDEX 01 00:38:46
  TRACK 32 AUDIO
    TITLE "LR_black_phrase_E_S09_032"
    INDEX 01 00:39:51
  TRACK 33 AUDIO
    TITLE "LR_black_phrase_E_S09_033"
    INDEX 01 00:40:65
  TRACK 34 AUDIO
    TITLE "LR_black_phrase_E_S09_034"
    INDEX 01 00:41:19
  TRACK 35 AUDIO
    TITLE "LR_black_phrase_E_S09_035"
    INDEX 01 00:43:14
  TRACK 36 AUDIO
    TITLE "LR_black_phrase_E_S09_036"
    INDEX 01 00:43:69
  TRACK 37 AUDIO
    TITLE "LR_black_phrase_E_S09_037"
    INDEX 01 00:45:64
  TRACK 38 AUDIO
    TITLE "LR_black_phrase_E_S09_038"
    INDEX 01 00:46:65
  TRACK 39 AUDIO
    TITLE "LR_black_phrase_E_S09_039"
    INDEX 01 00:48:01
  TRACK 40 AUDIO
    TITLE "LR_black_phrase_E_S09_040"
    INDEX 01 00:48:23
  TRACK 41 AUDIO
    TITLE "LR_black_phrase_E_S09_041"
    INDEX 01 00:50:22
  TRACK 42 AUDIO
    TITLE "LR_black_phrase_E_S09_042"
    INDEX 01 00:50:67
  TRACK 43 AUDIO
    TITLE "LR_black_phrase_E_S09_043"
    INDEX 01 00:52:62
  TRACK 44 AUDIO
    TITLE "LR_black_phrase_E_S09_044"
    INDEX 01 00:53:61
  TRACK 45 AUDIO
    TITLE "LR_black_phrase_E_S09_045"
    INDEX 01 00:54:75
  TRACK 46 AUDIO
    TITLE "LR_black_phrase_E_S09_046"
    INDEX 01 00:55:23
  TRACK 47 AUDIO
    TITLE "LR_black_phrase_E_S09_047"
    INDEX 01 00:57:40
  TRACK 48 AUDIO
    TITLE "LR_black_phrase_E_S09_048"
    INDEX 01 00:58:10
  TRACK 49 AUDIO
    TITLE "LR_black_phrase_E_S09_049"
    INDEX 01 01:00:26
  TRACK 50 AUDIO
    TITLE "LR_black_phrase_E_S09_050"
    INDEX 01 01:01:30
  TRACK 51 AUDIO
    TITLE "LR_black_phrase_E_S09_051"
    INDEX 01 01:02:51
  TRACK 52 AUDIO
    TITLE "LR_black_phrase_E_S09_052"
    INDEX 01 01:03:05
  TRACK 53 AUDIO
    TITLE "LR_black_phrase_E_S09_053"
    INDEX 01 01:05:45
  TRACK 54 AUDIO
    TITLE "LR_black_phrase_E_S09_054"
    INDEX 01 01:06:19
  TRACK 55 AUDIO
    TITLE "LR_black_phrase_E_S09_055"
    INDEX 01 01:08:59
  TRACK 56 AUDIO
    TITLE "LR_black_phrase_E_S09_056"
    INDEX 01 01:09:60
  TRACK 57 AUDIO
    TITLE "LR_black_phrase_E_S09_057"
    INDEX 01 01:10:72
  TRACK 58 AUDIO
    TITLE "LR_black_phrase_E_S09_058"
    INDEX 01 01:11:24
  TRACK 59 AUDIO
    TITLE "LR_black_phrase_E_S09_059"
    INDEX 01 01:12:69
  TRACK 60 AUDIO
    TITLE "LR_black_phrase_E_S09_060"
    INDEX 01 01:13:46
  TRACK 61 AUDIO
    TITLE "LR_black_phrase_E_S09_061"
    INDEX 01 01:15:16
  TRACK 62 AUDIO
    TITLE "LR_black_phrase_E_S09_062"
    INDEX 01 01:16:15
  TRACK 63 AUDIO
    TITLE "LR_black_phrase_E_S09_063"
    INDEX 01 01:17:42
  TRACK 64 AUDIO
    TITLE "LR_black_phrase_E_S09_064"
    INDEX 01 01:17:64
  TRACK 65 AUDIO
    TITLE "LR_black_phrase_E_S09_065"
    INDEX 01 01:20:27
  TRACK 66 AUDIO
    TITLE "LR_black_phrase_E_S09_066"
    INDEX 01 01:20:74
  TRACK 67 AUDIO
    TITLE "LR_black_phrase_E_S09_067"
    INDEX 01 01:23:35
  TRACK 68 AUDIO
    TITLE "LR_black_phrase_E_S09_068"
    INDEX 01 01:24:37
  TRACK 69 AUDIO
    TITLE "LR_black_phrase_E_S09_069"
    INDEX 01 01:25:50
  TRACK 70 AUDIO
    TITLE "LR_black_phrase_E_S09_070"
    INDEX 01 01:25:67
  TRACK 71 AUDIO
    TITLE "LR_black_phrase_E_S09_071"
    INDEX 01 01:28:17
  TRACK 72 AUDIO
    TITLE "LR_black_phrase_E_S09_072"
    INDEX 01 01:28:62
  TRACK 73 AUDIO
    TITLE "LR_black_phrase_E_S09_073"
    INDEX 01 01:31:13
  TRACK 74 AUDIO
    TITLE "LR_black_phrase_E_S09_074"
    INDEX 01 01:32:12
  TRACK 75 AUDIO
    TITLE "LR_black_phrase_E_S09_075"
    INDEX 01 01:33:18
  TRACK 76 AUDIO
    TITLE "LR_black_phrase_E_S09_076"
    INDEX 01 01:33:49
  TRACK 77 AUDIO
    TITLE "LR_black_phrase_E_S09_077"
    INDEX 01 01:35:46
  TRACK 78 AUDIO
    TITLE "LR_black_phrase_E_S09_078"
    INDEX 01 01:36:24
  TRACK 79 AUDIO
    TITLE "LR_black_phrase_E_S09_079"
    INDEX 01 01:38:21
  TRACK 80 AUDIO
    TITLE "LR_black_phrase_E_S09_080"
    INDEX 01 01:39:24
  TRACK 81 AUDIO
    TITLE "LR_black_phrase_E_S09_081"
    INDEX 01 01:40:32
  TRACK 82 AUDIO
    TITLE "LR_black_phrase_E_S09_082"
    INDEX 01 01:40:63
  TRACK 83 AUDIO
    TITLE "LR_black_phrase_E_S09_083"
    INDEX 01 01:42:44
  TRACK 84 AUDIO
    TITLE "LR_black_phrase_E_S09_084"
    INDEX 01 01:43:26
  TRACK 85 AUDIO
    TITLE "LR_black_phrase_E_S09_085"
    INDEX 01 01:45:07
  TRACK 86 AUDIO
    TITLE "LR_black_phrase_E_S09_086"
    INDEX 01 01:46:07
  TRACK 87 AUDIO
    TITLE "LR_black_phrase_E_S09_087"
    INDEX 01 01:47:08
  TRACK 88 AUDIO
    TITLE "LR_black_phrase_E_S09_088"
    INDEX 01 01:47:32
  TRACK 89 AUDIO
    TITLE "LR_black_phrase_E_S09_089"
    INDEX 01 01:50:18
  TRACK 90 AUDIO
    TITLE "LR_black_phrase_E_S09_090"
    INDEX 01 01:50:61
  TRACK 91 AUDIO
    TITLE "LR_black_phrase_E_S09_091"
    INDEX 01 01:53:48
  TRACK 92 AUDIO
    TITLE "LR_black_phrase_E_S09_092"
    INDEX 01 01:54:42
  TRACK 93 AUDIO
    TITLE "LR_black_phrase_E_S09_093"
    INDEX 01 01:55:63
  TRACK 94 AUDIO
    TITLE "LR_black_phrase_E_S09_094"
    INDEX 01 01:56:13
  TRACK 95 AUDIO
    TITLE "LR_black_phrase_E_S09_095"
    INDEX 01 01:58:02
  TRACK 96 AUDIO
    TITLE "LR_black_phrase_E_S09_096"
    INDEX 01 01:58:47
  TRACK 97 AUDIO
    TITLE "LR_black_phrase_E_S09_097"
    INDEX 01 02:00:40
  TRACK 98 AUDIO
    TITLE "LR_black_phrase_E_S09_098"
    INDEX 01 02:01:40
  TRACK 99 AUDIO
    TITLE "LR_black_phrase_E_S09_099"
    INDEX 01 02:02:66
  TRACK 100 AUDIO
    TITLE "LR_black_phrase_E_S09_100"
    INDEX 01 02:03:23
  TRACK 101 AUDIO
    TITLE "LR_black_phrase_E_S09_101"
    INDEX 01 02:05:14
  TRACK 102 AUDIO
    TITLE "LR_black_phrase_E_S09_102"
    INDEX 01 02:05:69
  TRACK 103 AUDIO
    TITLE "LR_black_phrase_E_S09_103"
    INDEX 01 02:07:62
  TRACK 104 AUDIO
    TITLE "LR_black_phrase_E_S09_104"
    INDEX 01 02:08:67
  TRACK 105 AUDIO
    TITLE "LR_black_phrase_E_S09_105"
    INDEX 01 02:10:13
  TRACK 106 AUDIO
    TITLE "LR_black_phrase_E_S09_106"
    INDEX 01 02:10:43
  TRACK 107 AUDIO
    TITLE "LR_black_phrase_E_S09_107"
    INDEX 01 02:13:06
  TRACK 108 AUDIO
    TITLE "LR_black_phrase_E_S09_108"
    INDEX 01 02:13:62
  TRACK 109 AUDIO
    TITLE "LR_black_phrase_E_S09_109"
    INDEX 01 02:16:25
  TRACK 110 AUDIO
    TITLE "LR_black_phrase_E_S09_110"
    INDEX 01 02:17:27
  TRACK 111 AUDIO
    TITLE "LR_black_phrase_E_S09_111"
    INDEX 01 02:18:40
  TRACK 112 AUDIO
    TITLE "LR_black_phrase_E_S09_112"
    INDEX 01 02:18:64
  TRACK 113 AUDIO
    TITLE "LR_black_phrase_E_S09_113"
    INDEX 01 02:20:29
  TRACK 114 AUDIO
    TITLE "LR_black_phrase_E_S09_114"
    INDEX 01 02:21:07
  TRACK 115 AUDIO
    TITLE "LR_black_phrase_E_S09_115"
    INDEX 01 02:22:46
  TRACK 116 AUDIO
    TITLE "LR_black_phrase_E_S09_116"
    INDEX 01 02:23:53
  TRACK 117 AUDIO
    TITLE "LR_black_phrase_E_S09_117"
    INDEX 01 02:25:01
  TRACK 118 AUDIO
    TITLE "LR_black_phrase_E_S09_118"
    INDEX 01 02:25:22
  TRACK 119 AUDIO
    TITLE "LR_black_phrase_E_S09_119"
    INDEX 01 02:27:15
  TRACK 120 AUDIO
    TITLE "LR_black_phrase_E_S09_120"
    INDEX 01 02:27:59
  TRACK 121 AUDIO
    TITLE "LR_black_phrase_E_S09_121"
    INDEX 01 02:29:52
